<?xml version="1.0" encoding="UTF-8"?><svg xmlns="http://www.w3.org/2000/svg" clip-rule="evenodd" fill-rule="evenodd" height="7486.22" image-rendering="optimizeQuality" shape-rendering="geometricPrecision" text-rendering="geometricPrecision" viewBox="0 0 7486.22 7486.22" width="7486.22"><g><path d="M6457.64 6320.3l1017.91 -121.65 -649.75 -331.71c416.46,-603.39 660.41,-1335.25 660.41,-2123.87 0,-2067.27 -1675.9,-3743.07 -3743.11,-3743.07 -2067.21,0 -3743.11,1675.8 -3743.11,3743.07 0,1228.57 591.86,2319 1506.05,3001.5 65.15,-323.73 165.26,-626.96 294.49,-901.09 -564.78,-522.67 -918.35,-1270.21 -918.35,-2100.41 0,-1580.09 1280.87,-2860.97 2860.93,-2860.97 1580.05,0 2860.93,1280.87 2860.93,2860.97 0,569.94 -166.56,1100.92 -453.9,1546.93l-123.04 -245.02 -201.32 -400.81 -45.2 759.71 -21.96 369.76 -12.28 205.79 -25.58 429.04 171.23 -20.47 565.65 -67.7 0 0z" fill="#0098da"/><path d="M6368.81 3619.11c1.81,41.08 2.88,82.38 2.88,123.96 0,41.62 -1.07,82.9 -2.88,123.94l-699.55 0c2.55,-39.99 3.73,-80.39 3.73,-121.01 0,-42.63 -1.29,-84.91 -4.06,-126.88l699.87 0 0 0z" fill="#323748"/><path d="M2135.67 4814.36l-604.68 349.07c-44.57,-69.4 -86.04,-140.94 -124.22,-214.62l604.98 -349.28c36.69,74.53 78.15,146.15 123.92,214.84l0 0z" fill="#323748"/><path d="M1117.41 3867c-1.92,-41.04 -2.88,-82.31 -2.88,-123.94 0,-41.58 0.96,-82.88 2.88,-123.96l699.99 0c-2.77,41.97 -4.16,84.25 -4.16,126.88 0,40.62 1.29,81.02 3.73,121.01l-699.55 0 0 0z" fill="#323748"/><path d="M1406.77 2537.39c38.07,-73.63 79.65,-145.28 124.22,-214.66l607.43 350.77c-45.83,68.47 -87.53,140.05 -124.42,214.38l-607.23 -350.49 0 0z" fill="#323748"/><path d="M2322.77 1530.95c69.42,-44.63 140.96,-86.06 214.64,-124.13l351.23 608.3c-74.44,36.74 -146.2,78.23 -214.75,123.94l-351.12 -608.1 0 0z" fill="#323748"/><path d="M3619.11 1117.43c41.15,-1.9 82.42,-2.83 124,-2.83 41.58,0 82.86,0.94 124,2.83l0 702.56c-41.06,-2.59 -82.31,-3.92 -124,-3.92 -41.58,0 -82.94,1.33 -124,3.92l0 -702.56z" fill="#323748"/><path d="M4948.8 1406.82c73.68,38.07 145.33,79.5 214.64,124.13l-351.11 608.1c-68.55,-45.7 -140.31,-87.2 -214.75,-123.94l351.22 -608.3 0 0z" fill="#323748"/><path d="M5955.22 2322.73c44.57,69.38 86.15,141.03 124.22,214.66l-607.23 350.49c-36.89,-74.33 -78.59,-145.92 -124.42,-214.38l607.43 -350.77 0 0z" fill="#323748"/><path d="M3743.11 4444.16c-471.39,0 -853.62,-382.25 -853.62,-853.64 0,-471.48 382.23,-853.64 853.62,-853.64 471.39,0 853.62,382.16 853.62,853.64 0,471.39 -382.23,853.64 -853.62,853.64l0 0z" fill="#323748"/><path d="M5614.99 6985.31c-550.6,318.58 -1190.04,500.91 -1871.88,500.91 -681.85,0 -1321.17,-182.33 -1871.88,-500.91 195.76,-1261.77 959.61,-2202.83 1871.88,-2202.83 912.38,0 1676.12,941.05 1871.88,2202.83z" fill="#323748"/></g></svg>